<svg width="1047" height="407" viewBox="0 0 1047 407" fill="none" xmlns="http://www.w3.org/2000/svg">
<g clip-path="url(#clip0_111_14)">
<path fill-rule="evenodd" clip-rule="evenodd" d="M579.485 1.23041e-05C591.615 -0.120657 603.297 4.57267 611.969 13.0504C620.641 21.5282 625.595 33.0981 625.744 45.2222C625.744 57.4858 620.87 69.247 612.195 77.9187C603.52 86.5903 591.754 91.462 579.485 91.462C567.217 91.462 555.451 86.5903 546.776 77.9187C538.1 69.247 533.227 57.4858 533.227 45.2222C533.376 33.0981 538.33 21.5282 547.002 13.0504C555.674 4.57267 567.356 -0.120657 579.485 1.23041e-05V1.23041e-05ZM23.1374 181.906L21.7802 221.024L38.6323 220.232C43.7219 220.232 53.3356 220.232 67.3602 220.232C67.3602 236.738 67.3602 254.149 65.7768 272.238C64.1933 290.327 63.0623 308.416 60.9134 326.052H119.161C119.161 306.494 119.161 287.953 120.631 270.542C122.101 253.131 122.78 236.625 124.25 220.232C127.87 220.232 138.049 220.232 155.014 221.25C158.407 221.25 163.271 221.25 169.604 221.25L171.188 182.133L23.1374 181.906ZM188.153 225.094C188.153 230.068 187.022 241.826 185.552 260.367C184.647 271.673 184.194 280.378 184.194 286.709C184.25 292.609 185.844 298.392 188.819 303.487C191.794 308.583 196.048 312.814 201.16 315.764C219.06 325.672 239.448 330.187 259.86 328.766C277.934 329.499 295.943 326.177 312.565 319.043C322.199 314.634 330.138 307.214 335.185 297.901C338.297 291.572 339.885 284.603 339.823 277.551C339.823 269.638 340.388 256.071 341.632 237.078C342.876 218.084 344.12 199.656 345.591 181.906H286.665C286.665 193.212 286.665 207.005 285.081 224.415C284.305 239.558 282.757 254.652 280.444 269.638C279.922 274.88 277.834 279.844 274.45 283.883C270.215 286.99 264.97 288.402 259.746 287.839C257.16 287.965 254.584 287.442 252.253 286.316C249.921 285.19 247.909 283.498 246.4 281.395C243.404 276.101 241.99 270.058 242.329 263.985C242.329 256.975 243.234 243.861 245.043 224.868C246.853 205.874 247.645 191.516 247.645 181.906H189.849C189.849 194.003 189.284 208.361 188.266 225.094H188.153ZM447.495 219.328C455.073 220.458 458.806 223.963 458.806 229.729C458.876 232.369 458.146 234.969 456.714 237.188C455.281 239.407 453.211 241.141 450.775 242.165C445.891 244.266 440.593 245.232 435.281 244.991C432.128 245.033 428.98 244.73 425.893 244.087C429.625 257.314 433.132 270.881 436.525 284.787C439.239 295.414 442.519 309.094 446.364 325.6H506.535C502.689 315.425 498.844 305.25 495.224 294.962C491.605 284.674 487.42 273.255 483.914 264.098C492.886 260.714 500.724 254.877 506.535 247.253C511.666 239.74 514.28 230.794 513.999 221.702C514.471 214.458 512.605 207.253 508.676 201.148C504.747 195.043 498.961 190.359 492.171 187.785C480.881 183.483 468.844 181.484 456.77 181.906H368.664C368.664 207.758 368.136 232.857 367.08 257.201C365.949 281.621 363.913 304.459 361.199 325.6H417.75C417.75 316.782 417.75 305.589 418.768 292.249C419.786 278.908 420.125 266.246 420.803 254.375C421.482 242.504 421.821 230.52 421.821 218.649H434.941C439.25 218.578 443.558 218.805 447.835 219.328H447.495ZM580.843 183.828C565.675 187.635 551.808 195.444 540.691 206.439C534.311 213.345 529.366 221.447 526.143 230.278C522.92 239.108 521.484 248.49 521.917 257.88C521.448 268.576 523.766 279.211 528.643 288.743C533.52 298.275 540.789 306.378 549.74 312.259C568.121 323.927 589.622 329.724 611.38 328.879C644.557 328.879 669.364 320.023 685.801 302.311C698.76 288.583 705.79 270.306 705.368 251.436C705.873 240.692 703.661 229.995 698.936 220.332C694.212 210.67 687.127 202.353 678.336 196.151C660.248 183.955 638.719 177.892 616.922 178.854C604.718 178.871 592.575 180.584 580.843 183.941V183.828ZM638.524 227.807C644.591 234.158 647.886 242.657 647.686 251.436C647.869 261.228 644.402 270.738 637.959 278.117C634.924 281.773 631.096 284.691 626.765 286.65C622.435 288.609 617.715 289.557 612.963 289.422C608.448 289.649 603.934 288.927 599.715 287.303C595.496 285.679 591.664 283.189 588.466 279.993C585.269 276.797 582.778 272.966 581.153 268.749C579.528 264.531 578.806 260.02 579.033 255.506C578.782 245.627 582.346 236.032 588.986 228.711C592.133 225.07 596.046 222.168 600.445 220.214C604.844 218.26 609.621 217.301 614.434 217.406C618.837 217.267 623.22 218.062 627.294 219.738C631.368 221.414 635.041 223.932 638.072 227.129L638.524 227.807ZM769.836 289.648C770.288 276.232 770.967 261.987 771.872 246.913C777.866 259.802 784.313 272.916 791.325 286.144C798.337 299.371 805.463 312.599 812.588 325.6H878.527C878.527 311.581 878.527 296.093 879.771 279.247C881.015 262.402 881.58 245.896 882.938 229.729C883.842 217.858 885.2 201.917 887.122 181.906H835.096C833.965 208.927 832.834 235.721 831.816 262.628C825.708 249.401 819.261 235.947 812.588 222.38C805.01 207.005 798.224 193.551 792.117 181.906H724.934C724.934 197.056 724.934 213.788 723.577 232.216C722.22 250.644 721.541 269.185 720.071 287.5C718.601 305.815 717.47 318.478 716.678 325.6H769.044C769.044 314.973 769.044 302.989 769.836 289.648Z" fill="#30408D"/>
<path fill-rule="evenodd" clip-rule="evenodd" d="M82.7421 365.056L83.5338 355.899H20.9885L20.1968 365.056H45.1923L41.7992 407H54.1273L57.5204 365.056H82.7421ZM226.155 407L226.834 397.39H183.177L184.194 384.389H209.303L209.982 375.684H184.873L185.778 364.378H228.87L229.661 355.334H173.789L169.604 407H226.155ZM371.717 407L372.509 397.39H331.114L334.507 355.899H321.613L317.315 407H371.717ZM516.714 407L517.506 397.39H473.735L474.753 384.389H499.862L500.653 375.684H475.545L476.45 364.378H519.541L520.22 355.334H464.348L460.163 407H516.714ZM656.282 374.779L669.062 373.083V368.222C669.391 366.584 669.38 364.896 669.029 363.263C668.679 361.629 667.997 360.085 667.026 358.725C663.952 356.612 660.213 355.688 656.508 356.125H624.613C620.656 355.665 616.661 356.583 613.303 358.725C610.972 361.332 609.719 364.727 609.797 368.222L608.326 394.903C607.995 396.559 608.005 398.265 608.355 399.917C608.705 401.569 609.388 403.133 610.362 404.513C613.448 406.498 617.117 407.375 620.768 407H653.115C657.071 407.451 661.063 406.533 664.425 404.4C666.797 401.81 668.091 398.414 668.044 394.903V388.911L655.49 386.311L654.585 397.616H620.654L623.256 365.735H657.186L656.395 375.231L656.282 374.779ZM774.134 365.283H816.094L813.493 397.164H771.532L774.134 365.283ZM758.978 394.903C758.647 396.559 758.657 398.265 759.007 399.917C759.357 401.569 760.04 403.133 761.014 404.513C764.127 406.532 767.844 407.411 771.532 407H811.91C815.85 407.415 819.818 406.542 823.22 404.513C825.548 401.86 826.799 398.432 826.726 394.903L828.988 367.996C829.317 366.358 829.306 364.67 828.955 363.036C828.605 361.403 827.923 359.859 826.952 358.499C823.886 356.366 820.141 355.44 816.434 355.899H775.717C771.761 355.448 767.769 356.365 764.407 358.499C762.076 361.106 760.823 364.5 760.901 367.996L758.978 394.903ZM926.708 407L929.536 373.083L951.025 401.347H953.513L979.413 372.292L976.586 407H987.896L992.873 355.899H982.467L954.305 386.198L931.006 355.899H920.714L916.416 407H926.708Z" fill="#2B2A29"/>
<path fill-rule="evenodd" clip-rule="evenodd" d="M1000.56 330.348H947.632C953.853 310.677 970.252 248.609 955.21 195.36C932.589 117.804 815.303 70.9989 645.198 60.4847C646.337 55.4807 646.831 50.3516 646.668 45.2222V43.0742C839.733 49.4053 979.64 95.7581 1015.49 175.349C1044.56 240.921 1012.44 309.659 1001.13 330.348H1000.56ZM513.434 45.2222C513.464 49.8199 513.956 54.4029 514.904 58.9019C356.987 66.2433 200.404 91.3879 48.1329 133.858L21.7802 141.093V131.597C37.162 127.187 52.7701 122.778 68.6043 118.482C213.952 78.597 363.08 54.043 513.547 45.2222C513.547 45.2222 513.547 45.2222 513.547 45.9005L513.434 45.2222Z" fill="#D84043"/>
</g>
<defs>
<clipPath id="clip0_111_14">
<rect width="1047" height="407" fill="white"/>
</clipPath>
</defs>
</svg>
